<svg id="Layer_1" xmlns="http://www.w3.org/2000/svg" viewBox="0 0 800 800"><style>.st1{fill:#fff}</style><path d="M726 325c0-170.6-138.3-308.9-308.9-308.9v165.6c-93.7-2.2-184.3 32.4-249 95.2C105.9 337.3 72 419.5 72 508.4v.2c0 149.9 113.3 270.8 258.2 275.2 115.4 3.5 211.9-87.4 215.7-202.7-.4-8.6-.7-17.1-1.1-25.6-9.7-79.1-76-141.7-158.1-144.2-34.1-1-66.6 11.3-91.5 34.7-24.9 23.4-39.1 55.1-40.1 89.2-.8 26.3 8.7 51.4 26.8 70.6 18.1 19.2 42.5 30.2 68.8 31 41.5 1.3 76.3-31.5 77.6-73 .5-15-5-29.5-15.4-40.6-10.4-11-24.4-17.3-39.5-17.8-11.1-.3-21.7 3.7-29.9 11.3-8.1 7.6-12.8 18-13.1 29.1-.3 9.9-8.6 17.7-18.5 17.4-9.9-.3-17.7-8.5-17.4-18.5.6-20.7 9.3-40 24.4-54.2 15.1-14.2 34.8-21.7 55.6-21.1 24.7.7 47.7 11.1 64.6 29.1 17 18 25.9 41.6 25.1 66.3-1.8 61.3-53.2 109.7-114.6 107.8-35.9-1.1-69.3-16.1-93.9-42.3-24.6-26.2-37.6-60.4-36.5-96.3 1.3-43.7 19.6-84.3 51.4-114.3 31.8-30 73.5-45.7 117.2-44.4 61.1 1.8 115.2 31.1 150.6 75.5l.1.6L598 445v-.1c-3.6-33.3-32.5-57.5-64.9-54.6-2.7-23.1-5.9-44.8-9.7-64.8H726v-.5zM546 203.3c-30.7 0-55.5-24.9-55.5-55.5 0-30.7 24.9-55.5 55.5-55.5s55.5 24.9 55.5 55.5-24.9 55.5-55.5 55.5z" fill="#85c44a"/><path class="st1" d="M546 92.3c-30.7 0-55.5 24.9-55.5 55.5 0 30.7 24.9 55.5 55.5 55.5s55.5-24.9 55.5-55.5c0-30.7-24.9-55.5-55.5-55.5zm0 88.2c-18.1 0-32.7-14.7-32.7-32.7 0-18.1 14.7-32.7 32.7-32.7s32.7 14.7 32.7 32.7c0 18-14.7 32.7-32.7 32.7z"/><path d="M546 115c-18.1 0-32.7 14.7-32.7 32.7 0 18.1 14.7 32.7 32.7 32.7s32.7-14.7 32.7-32.7c0-18-14.7-32.7-32.7-32.7zm-20 37c-2.4 0-4.3-1.9-4.3-4.3s1.9-4.3 4.3-4.3 4.3 1.9 4.3 4.3-1.9 4.3-4.3 4.3zm11.4-8.5c-3.9 0-7.1-3.2-7.1-7.1s3.2-7.1 7.1-7.1 7.1 3.2 7.1 7.1-3.1 7.1-7.1 7.1z"/><circle class="st1" cx="537.4" cy="136.4" r="7.1"/><circle class="st1" cx="526" cy="147.8" r="4.3"/></svg>